<svg xmlns="http://www.w3.org/2000/svg" xmlns:xlink="http://www.w3.org/1999/xlink" width="29.773" height="43.528" viewBox="0 0 29.773 43.528"><defs><clipPath id="a"><path d="M0,0H29.773V43.528H0Z" transform="translate(0 0.057)" fill="none"/></clipPath></defs><g transform="translate(-15 -8.566)"><g transform="translate(15 8)"><g transform="translate(0 0.509)"><path d="M0,0H29.773V43.528H0Z" transform="translate(0 0.057)" fill="none"/><g clip-path="url(#a)"><path d="M14.887,43.528a.713.713,0,0,1-.453-.227A114.55,114.55,0,0,1,7.245,33.113C2.438,25.478,0,19.327,0,14.83A14.457,14.457,0,0,1,1.189,9.074,14.92,14.92,0,0,1,4.415,4.358,15.076,15.076,0,0,1,9.17,1.171a14.829,14.829,0,0,1,20.6,13.659A22.718,22.718,0,0,1,27.6,23.271a73.3,73.3,0,0,1-4.82,9.148A130.237,130.237,0,0,1,15.342,43.3.514.514,0,0,1,14.887,43.528Zm0-42.4A13.684,13.684,0,0,0,5.165,5.158,13.577,13.577,0,0,0,1.132,14.83c0,3.862,2,9.19,5.936,15.835A114.862,114.862,0,0,0,14.83,42a123.971,123.971,0,0,0,7.79-11.632,65.905,65.905,0,0,0,4.158-8.2,20.446,20.446,0,0,0,1.807-7.334A13.714,13.714,0,0,0,14.887,1.132Z" transform="translate(0 0.057)" fill="#4a4a4a"/></g></g><path d="M27.453,13.7c0,8.377-11.321,24-13.755,27.17C11.264,37.755,0,22.811,0,13.7a13.726,13.726,0,0,1,27.453,0" transform="translate(1.132 1.698)" fill="#fafafa"/></g><path d="M13.983,13.058H8.316v-.1c.284-.017.55-.035.826-.06a1.265,1.265,0,0,0,.731-.268,1.192,1.192,0,0,0,.378-.854q.026-.35.026-.7V6.913c0-.173,0-.173-.163-.173H3.87c-.163,0-.163,0-.163.164v4.445a3.575,3.575,0,0,0,.069.673.971.971,0,0,0,.86.855c.267.043.533.052.8.069a2.239,2.239,0,0,0,.241,0v.121H.008v-.1c.284-.017.559-.035.843-.06a1.182,1.182,0,0,0,.817-.354.992.992,0,0,0,.249-.544,3.8,3.8,0,0,0,.06-.621v-9.7a3.608,3.608,0,0,0-.052-.613A.966.966,0,0,0,1.058.19,9.074,9.074,0,0,0,.094.112C.017.1-.017.086.008,0H5.667c0,.026.009.06.009.112-.2,0-.378-.009-.559,0a3.177,3.177,0,0,0-.628.1.985.985,0,0,0-.722.889,4.648,4.648,0,0,0-.043.6V6.145c0,.164,0,.164.163.164h6.4c0-.052.009-.1.009-.147V1.735a4.581,4.581,0,0,0-.069-.69A.954.954,0,0,0,9.373.19,8.753,8.753,0,0,0,8.427.112C8.35.1,8.316.086,8.341,0h5.641c.009.026.009.06.017.095A.168.168,0,0,1,13.94.1c-.258.009-.516.009-.774.035a2.089,2.089,0,0,0-.456.121,1.006,1.006,0,0,0-.628.923c-.017.173-.026.345-.034.518v9.7a3.153,3.153,0,0,0,.06.639,1.006,1.006,0,0,0,.955.854c.2.026.4.035.6.043.077.009.2,0,.318,0Z" transform="translate(23 17)" fill="#4a4a4a"/></g></svg>