<svg width="4" height="4" viewBox="0 0 4 4" fill="none" xmlns="http://www.w3.org/2000/svg">
<path d="M0.984 1.764C0.984 1.968 1.02 2.16 1.092 2.328C1.164 2.496 1.272 2.652 1.404 2.784C1.536 2.916 1.692 3.024 1.872 3.096C2.04 3.168 2.232 3.204 2.436 3.204C2.628 3.204 2.82 3.168 2.988 3.096C3.156 3.024 3.312 2.916 3.444 2.784C3.576 2.652 3.684 2.496 3.756 2.328C3.828 2.16 3.876 1.968 3.876 1.764C3.876 1.572 3.828 1.38 3.756 1.2C3.684 1.032 3.576 0.876 3.444 0.744C3.312 0.612 3.156 0.504 2.988 0.432C2.82 0.36 2.628 0.312 2.436 0.312C2.232 0.312 2.04 0.36 1.872 0.432C1.692 0.504 1.536 0.612 1.404 0.744C1.272 0.876 1.164 1.032 1.092 1.2C1.02 1.38 0.984 1.572 0.984 1.764Z" fill="#666666"/>
</svg>
