<svg width="11" height="18" viewBox="0 0 11 18" fill="none" xmlns="http://www.w3.org/2000/svg">
<path d="M10 17.1H10.1016L10.1 16.9984L10.0907 16.413L10.0891 16.3146H9.99068H3.12117C3.26774 16.0653 3.38446 15.7704 3.47256 15.4317L3.47264 15.4314C3.61849 14.8632 3.68085 14.1706 3.66209 13.3554L3.66208 13.3552L3.57259 9.86965H6.89752H6.99752V9.76965V9.18428V9.08428H6.89752H3.55243L3.46646 5.73585C3.46657 4.84841 3.5836 4.10663 3.81384 3.50741L3.81398 3.50705C4.04475 2.89938 4.36988 2.44719 4.78574 2.14305C5.20156 1.83894 5.69586 1.68537 6.27329 1.68537C6.80428 1.68537 7.28442 1.80454 7.71582 2.04157L7.71633 2.04185C8.14895 2.27629 8.49584 2.64991 8.75526 3.16934L8.75525 3.16935L8.75593 3.17066C9.01935 3.67917 9.15466 4.35187 9.15466 5.19512V5.29512H9.25466H9.75776H9.85776V5.19512C9.85776 4.36051 9.71936 3.62039 9.43977 2.97694C9.16607 2.32548 8.76331 1.81469 8.23053 1.44874C7.69522 1.08104 7.04091 0.9 6.27329 0.9C5.5645 0.9 4.94385 1.09359 4.41578 1.48322C3.88876 1.87207 3.48107 2.43047 3.18987 3.15229L3.18972 3.15267C2.90427 3.86856 2.76335 4.73101 2.76332 5.73713L2.76339 5.73969L2.84926 9.08428H1H0.9V9.18428V9.76965V9.86965H1H2.86942L2.95904 13.3603L2.95905 13.3606C2.9713 13.7884 2.9468 14.22 2.88545 14.6554L2.88544 14.6554L2.88527 14.6568C2.83025 15.0907 2.7359 15.4644 2.60362 15.7793C2.47652 16.0749 2.31806 16.2443 2.1373 16.3146H1.03727H0.937267V16.4146V17V17.1H1.03727H10Z" fill="#1A1A1A" stroke="#1A1A1A" stroke-width="0.2"/>
</svg>
